<?xml version="1.0" encoding="UTF-8"?>
<svg width="720px" height="340px" viewBox="0 0 720 340" version="1.1" xmlns="http://www.w3.org/2000/svg" xmlns:xlink="http://www.w3.org/1999/xlink">
    <!-- Generator: Sketch 59.1 (86144) - https://sketch.com -->
    <title>Artboard</title>
    <desc>Created with Sketch.</desc>
    <g id="Artboard" stroke="none" stroke-width="1" fill="none" fill-rule="evenodd">
        <g id="footer_bg" transform="translate(4.000000, 2.000000)">
            <g id="Group-16" transform="translate(0.000000, 0.990000)">
                <g id="Group-17-Copy" transform="translate(194.909000, 200.586000) scale(-1, 1) translate(-194.909000, -200.586000) translate(123.409000, 130.086000)" fill="#0b090a" fill-rule="nonzero" stroke="#545253" stroke-width="1.782">
                    <ellipse id="Oval" cx="71.28" cy="70.389" rx="71.28" ry="70.389"></ellipse>
                </g>
                <g id="Group-9" fill="#0b090a" fill-rule="nonzero" stroke="#545253" stroke-width="1.782">
                    <path d="M79.299,0 C119.403986,0 151.9155,31.5142287 151.9155,70.389 C151.9155,84.7285673 147.491923,98.0666456 139.895369,109.190996 C155.01474,123.574438 164.3895,143.591122 164.3895,165.726 C164.3895,209.521628 127.689386,245.025 82.4175,245.025 C37.1456145,245.025 0.4455,209.521628 0.4455,165.726 C0.4455,145.397287 8.35275318,126.85519 21.3541833,112.821053 C12.145845,101.024054 6.6825,86.3249721 6.6825,70.389 C6.6825,31.5142287 39.1940145,0 79.299,0 Z" id="Combined-Shape"></path>
                </g>
                <path d="M82.863,118.998 L83.754,118.998 C84.7381714,118.998 85.536,119.795829 85.536,120.78 L85.536,285.364 L85.536,285.364 L81.081,287.364 L81.081,120.78 C81.081,119.795829 81.8788286,118.998 82.863,118.998 Z" id="Rectangle" fill="#545253"></path>
                <path d="M196.02,187.209 L196.911,187.209 C197.895171,187.209 198.693,188.006829 198.693,188.991 L198.693,292.949 L198.693,292.949 L194.238,293.949 L194.238,188.991 C194.238,188.006829 195.035829,187.209 196.02,187.209 Z" id="Rectangle" fill="#545253"></path>
                <path d="M92.178,285.12 C106.895836,285.12 118.827,297.162225 118.827,312.017062 C118.827,312.34308 118.825684,312.671445 118.822338,313.002615 C120.609779,312.364374 122.533454,312.017062 124.5375,312.017062 C131.12559,312.017062 136.845115,315.77045 139.711454,321.274131 C141.486302,320.103219 143.605373,319.4235 145.881,319.4235 C148.3091,319.4235 150.558963,320.197357 152.403138,321.515018 C153.006319,312.999609 160.009961,306.28125 168.561,306.28125 C171.962344,306.28125 175.118857,307.344234 177.723601,309.160271 C180.637272,299.869653 189.214022,293.139 199.341,293.139 C211.866818,293.139 222.021,303.435975 222.021,316.137938 C222.021,316.416921 222.019879,316.697915 222.017376,316.980533 C223.538506,316.43487 225.175558,316.137937 226.881,316.137937 C234.933312,316.137937 241.461,322.757421 241.461,330.922969 C241.461,333.726274 240.69164,336.347358 239.355358,338.580937 L239.355358,338.580937 L137.421484,338.581305 C137.421195,338.580977 137.420905,338.580648 137.420616,338.58032 L19.7116029,338.580669 C17.4353029,336.167939 16.038,332.902683 16.038,329.308031 C16.038,321.880613 22.0035819,315.8595 29.3625,315.8595 C32.2156278,315.8595 34.8593104,316.764589 37.0259439,318.306477 C37.7342185,308.347322 45.963705,300.48975 56.0115,300.48975 C60.0074717,300.48975 63.7158553,301.732523 66.7773137,303.857511 C70.2006432,292.991814 80.2785195,285.12 92.178,285.12 Z" id="Combined-Shape" stroke="#545253" stroke-width="1.782" fill-rule="nonzero"></path>
                <path d="M46.2650189,167.31 C49.422954,188.9184 61.556281,201.062883 82.665,203.743448" id="Path-4" stroke="#545253" stroke-width="3.564" stroke-linecap="round" stroke-linejoin="round"></path>
                <path d="M58.4722724,118.998 C58.2640841,135.278714 65.8338091,144.387197 81.1814476,146.323448" id="Path-4" stroke="#545253" stroke-width="3.564" stroke-linecap="round" stroke-linejoin="round"></path>
                <path d="M82.7307422,134.640724 C82.7307422,159.390241 92.6965387,173.184483 112.628132,176.023448" id="Path-4" stroke="#545253" stroke-width="3.564" stroke-linecap="round" stroke-linejoin="round" transform="translate(97.679437, 155.332086) scale(-1, 1) translate(-97.679437, -155.332086) "></path>
                <path d="M166.420448,205.723448 C169.167516,222.712058 179.067516,232.282058 196.120448,234.433448" id="Path-4" stroke="#545253" stroke-width="3.564" stroke-linecap="round" stroke-linejoin="round"></path>
                <path d="M196.4655,183.739218 C196.652333,202.61176 204.135353,212.975354 218.914561,214.83" id="Path-4" stroke="#545253" stroke-width="3.564" stroke-linecap="round" stroke-linejoin="round" transform="translate(207.690030, 199.284609) scale(-1, 1) translate(-207.690030, -199.284609) "></path>
            </g>
            <g id="Group-2" transform="translate(326.700000, 213.840000)">
                <rect id="Rectangle" stroke="#545253" stroke-width="1.782" fill="#545253" x="39.105" y="77.517" width="10.098" height="47.223"></rect>
                <rect id="Rectangle" stroke="#545253" stroke-width="1.782" fill="#545253" x="244.035" y="77.517" width="10.098" height="47.223"></rect>
                <rect id="Rectangle" stroke="#545253" stroke-width="1.782" fill="#545253" x="40.986" y="8.019" width="7.128" height="67.716"></rect>
                <rect id="Rectangle" stroke="#545253" stroke-width="1.782" fill="#545253" x="245.916" y="8.019" width="7.128" height="67.716"></rect>
                <rect id="Rectangle" stroke="#545253" stroke-width="1.782" fill="#0b090a" x="14.256" y="0.891" width="265.518" height="11.583"></rect>
                <rect id="Rectangle" stroke="#545253" stroke-width="1.782" fill="#0b090a" x="14.256" y="23.166" width="265.518" height="11.583"></rect>
                <rect id="Rectangle" stroke="#545253" stroke-width="1.782" fill="#0b090a" x="14.256" y="45.441" width="265.518" height="11.583"></rect>
                <rect id="Rectangle" stroke="#545253" stroke-width="1.782" fill="#0b090a" x="0.891" y="74.844" width="292.248" height="4.455"></rect>
                <circle id="Oval" fill="#545253" cx="44.55" cy="7.128" r="1.782"></circle>
                <circle id="Oval" fill="#545253" cx="249.48" cy="7.128" r="1.782"></circle>
                <circle id="Oval" fill="#545253" cx="249.48" cy="29.403" r="1.782"></circle>
                <circle id="Oval" fill="#545253" cx="249.48" cy="51.678" r="1.782"></circle>
                <circle id="Oval" fill="#545253" cx="44.55" cy="29.403" r="1.782"></circle>
                <circle id="Oval" fill="#545253" cx="44.55" cy="50.787" r="1.782"></circle>
            </g>
            <g id="Group-7" transform="translate(680.130000, 0.000000)">
                <g id="Group-6" transform="translate(0.776596, 0.000000)">
                    <polygon id="Path-59" stroke="#545253" stroke-width="1.782" points="14.0593689 38.5104452 11.4105023 330.19141 21.8701294 330.19141 17.1157534 38.5104452"></polygon>
                    <g id="Group-9" transform="translate(1.426313, 0.000000)">
                        <g id="Group-8">
                            <path d="M0.318512207,16.8850865 L5.89126434,37.8043406 C6.00218107,38.220705 6.37921078,38.5104452 6.81009565,38.5104452 L21.71616,38.5104452 C22.1470449,38.5104452 22.5240746,38.220705 22.6349914,37.8043406 L28.2077435,16.8850865 C28.3429266,16.3776299 28.0411393,15.8566676 27.5336828,15.7214845 C27.4538316,15.7002127 27.3715482,15.6894406 27.2889122,15.6894406 L1.23734351,15.6894406 C0.712189644,15.6894406 0.28646832,16.115162 0.28646832,16.6403158 C0.28646832,16.7229518 0.29724037,16.8052353 0.318512207,16.8850865 Z" id="Path-53" stroke="#545253" stroke-width="1.782" fill="#FFE179"></path>
                            <path d="M-1.25766064e-12,10.2966956 L-1.25766064e-12,14.7385654 C-1.25850584e-12,15.0011424 0.212860662,15.214003 0.475437595,15.214003 L28.0508181,15.214003 C28.313395,15.214003 28.5262557,15.0011424 28.5262557,14.7385654 L28.5262557,10.2887667 C28.5263181,10.1933835 28.4976319,10.1002049 28.4439867,10.021337 C23.8997038,3.34044565 19.2506914,5.68434189e-14 14.4969496,5.68434189e-14 C9.74417353,5.68434189e-14 4.94213048,3.33908855 0.0908204804,10.0172657 C0.0317811772,10.0984723 -1.25767294e-12,10.1962956 -1.25766064e-12,10.2966956 Z" id="Path-58" fill="#545253"></path>
                        </g>
                        <polygon id="Path-60" fill="#FFF1C0" transform="translate(7.842938, 26.826941) scale(-1, 1) translate(-7.842938, -26.826941) " points="5.16993835 16.5804406 4.27893835 37.0734406 5.16993835 37.0734406 11.4069384 16.5804406"></polygon>
                    </g>
                    <path d="M8.02562232,38.5104452 L23.3532589,38.5104452 C23.6158359,38.5104452 23.8286965,38.7233059 23.8286965,38.9858828 C23.8286965,39.1313889 23.7620664,39.2688835 23.6478611,39.3590456 L15.6894406,45.6420091 L15.6894406,45.6420091 L7.73102013,39.3590456 C7.52492802,39.1963413 7.48975525,38.8973727 7.65245955,38.6912806 C7.74262157,38.5770754 7.88011622,38.5104452 8.02562232,38.5104452 Z" id="Path-61" fill="#545253"></path>
                    <line x1="0" y1="14.9762842" x2="30.9034437" y2="14.9762842" id="Path-62" stroke="#000000" stroke-width="1.782" fill="#545253" stroke-linecap="round"></line>
                </g>
                <path d="M9.96643662,209.792005 L23.84238,209.792005 C25.1419469,209.792005 26.2006526,210.835609 26.2193226,212.135042 L28.0419083,338.987005 L28.0419083,338.987005 L5.76690829,338.987005 L7.58949397,212.135042 C7.60816399,210.835609 8.66686964,209.792005 9.96643662,209.792005 Z" id="Rectangle" stroke="#545253" stroke-width="1.782" fill="#545253"></path>
            </g>
        </g>
    </g>
</svg>