<?xml version="1.0" encoding="utf-8"?>
<!-- Generator: Adobe Illustrator 15.0.0, SVG Export Plug-In  -->
<!DOCTYPE svg PUBLIC "-//W3C//DTD SVG 1.1//EN" "http://www.w3.org/Graphics/SVG/1.1/DTD/svg11.dtd" [
	<!ENTITY ns_flows "http://ns.adobe.com/Flows/1.0/">
]>
<svg version="1.1"
	 xmlns="http://www.w3.org/2000/svg" xmlns:xlink="http://www.w3.org/1999/xlink" xmlns:a="http://ns.adobe.com/AdobeSVGViewerExtensions/3.0/"
	 x="0px" y="0px" width="120px" height="120px" viewBox="-3.01172 -0.01172 120 120"
	 enable-background="new -3.01172 -0.01172 120 120" xml:space="preserve">
<defs>
</defs>
<path fill="#fff" d="M59.2998,0l3.27344,0.38965l1.75684,4.99512l2.85059-4.44629l3.27246,0.39014l-1.21875,10.23145
	l-3.41602-0.40674l0.51855-4.35352l-1.58105,2.4541l-1.7793-0.21191l-0.96094-2.75684l-0.51855,4.35303l-3.41602-0.40674L59.2998,0z
	"/>
<path fill="#fff" d="M74.19824,2.43457l7.53027,2.74756l-0.87207,2.38965l-4.29883-1.56836L76.1084,7.23584l3.74219,1.36572
	l-0.89355,2.44971l-3.74219-1.36523l-0.44434,1.21729l4.29883,1.56836l-0.87207,2.39014l-7.53027-2.74756L74.19824,2.43457z"/>
<path fill="#fff" d="M84.78711,6.61084l2.44434,1.55176l0.31738,5.83008l2.54688-4.01221L93,11.82422l-5.52148,8.69922
	l-2.47266-1.56885l-0.29883-5.79932l-2.53809,3.99854l-2.9043-1.84375L84.78711,6.61084z"/>
<path fill="#fff" d="M90.52148,22.94287c-0.29297-0.76318-0.36133-1.51709-0.20508-2.26123s0.55273-1.42334,1.18945-2.03906
	l4.52148-4.36914l2.39063,2.47363l-4.23438,4.0918c-0.79785,0.77051-0.83301,1.53174-0.10742,2.28369
	c0.72656,0.75146,1.48926,0.74219,2.28711-0.02881l4.2334-4.09131l2.39063,2.47363l-4.52148,4.36963
	c-0.63672,0.61523-1.33008,0.98779-2.0791,1.11816c-0.74902,0.13086-1.5,0.03662-2.25195-0.28174
	c-0.75293-0.31836-1.4707-0.83057-2.15234-1.53613S90.81348,23.70605,90.52148,22.94287z"/>
<path fill="#fff" d="M107.43262,37.58008l2.09961,6.11328l-2.48145,0.85254l-2.10059-6.11328L107.43262,37.58008z"/>
<path fill="#fff" d="M115.97559,59.30029l-0.39063,3.27295l-4.99414,1.75684l4.44531,2.85059l-0.38965,3.27246l-10.23145-1.21875
	l0.40723-3.41602l4.35254,0.51855l-2.4541-1.58105l0.21191-1.7793l2.75684-0.96094l-4.35254-0.51855l0.40625-3.41553
	L115.97559,59.30029z"/>
<path fill="#fff" d="M113.54199,74.19824l-2.74805,7.53027l-2.38965-0.87207l1.56836-4.29883l-1.23242-0.44922l-1.36523,3.74219
	l-2.4502-0.89355l1.36523-3.74219l-1.21777-0.44434l-1.56836,4.29883l-2.38965-0.87207l2.74707-7.53027L113.54199,74.19824z"/>
<path fill="#fff" d="M109.35449,84.80566L107.80176,87.25l-5.83008,0.31543l4.01172,2.54785l-1.84473,2.90332l-8.69727-5.52539
	l1.57031-2.4707l5.79883-0.29688l-3.99707-2.54004l1.84473-2.90332L109.35449,84.80566z"/>
<path fill="#fff" d="M93.0332,90.52148c0.76367-0.29297,1.5166-0.36133,2.26074-0.20508s1.42383,0.55273,2.03906,1.18945
	l4.37012,4.52148l-2.47363,2.39063l-4.0918-4.23438c-0.77148-0.79785-1.53223-0.83301-2.28418-0.10645
	c-0.75195,0.72559-0.74219,1.48828,0.0293,2.28613l4.09082,4.2334L94.5,102.9873l-4.36914-4.52148
	c-0.61523-0.63672-0.98828-1.33008-1.11914-2.0791c-0.12988-0.74902-0.03613-1.5,0.28223-2.25195
	c0.31836-0.75293,0.83008-1.4707,1.53613-2.15234S92.27051,90.81348,93.0332,90.52148z"/>
<path fill="#fff" d="M78.39746,107.43262l-6.11328,2.09961l-0.85352-2.48145l6.11328-2.10059L78.39746,107.43262z"/>
<path fill="#fff" d="M56.67676,115.97559l-3.27295-0.39063l-1.75732-4.99414l-2.8501,4.44531l-3.27246-0.38965l1.21875-10.23145
	l3.41602,0.40723l-0.51904,4.35254l1.58154-2.4541l1.7793,0.21191l0.96094,2.75684l0.51855-4.35254l3.41553,0.40625
	L56.67676,115.97559z"/>
<path fill="#fff" d="M41.75684,113.53613l-7.5293-2.75l0.87305-2.38965l4.29834,1.56934l0.44971-1.23242l-3.7417-1.36621
	l0.89453-2.4502l3.74219,1.36719l0.44482-1.21777l-4.29834-1.56934l0.87305-2.38965l7.5293,2.75L41.75684,113.53613z"/>
<path fill="#fff" d="M31.15234,109.34473l-2.44434-1.55371l-0.3125-5.83008l-2.5498,4.01074l-2.90283-1.8457l5.52832-8.69531
	l2.47119,1.57031l0.29443,5.7998l2.54102-3.99707l2.90283,1.8457L31.15234,109.34473z"/>
<path fill="#fff" d="M25.45508,93.0332c0.29248,0.76367,0.36084,1.5166,0.20459,2.26074s-0.55225,1.42383-1.18896,2.03906
	l-4.52197,4.37012l-2.39063-2.47363l4.23438-4.0918c0.79785-0.77148,0.8335-1.53223,0.10693-2.28418
	c-0.72656-0.75098-1.48828-0.74219-2.28613,0.0293l-4.23438,4.09082L12.98877,94.5l4.52148-4.36914
	c0.63672-0.61523,1.32959-0.98828,2.07861-1.11816c0.74902-0.13086,1.5-0.03711,2.25244,0.28125
	c0.75293,0.31836,1.47021,0.83105,2.15186,1.53613C24.67529,91.53613,25.1626,92.27051,25.45508,93.0332z"/>
<path fill="#fff" d="M8.54395,78.39746l-2.10059-6.11328l2.48145-0.85254l2.10059,6.1123L8.54395,78.39746z"/>
<path fill="#fff" d="M0,56.67676l0.38965-3.27295l4.99512-1.75732l-4.44629-2.8501l0.39014-3.27246l10.23145,1.21875
	l-0.40674,3.41602L6.7998,49.63965l2.45459,1.58154l-0.2124,1.7793l-2.75684,0.96094l4.35303,0.51855l-0.40674,3.41553L0,56.67676z"
	/>
<path fill="#fff" d="M2.44092,41.75732l2.75-7.52979l2.38965,0.87305l-1.56982,4.29834l1.23242,0.4502l1.3667-3.74219
	l2.44971,0.89453l-1.3667,3.74219l1.21729,0.44482l1.56982-4.29834l2.38965,0.87305l-2.75,7.5293L2.44092,41.75732z"/>
<path fill="#fff" d="M6.63086,31.15234l1.5542-2.44434l5.82959-0.3125l-4.00977-2.5498l1.8457-2.90283l8.69531,5.52832
	l-1.57129,2.47119l-5.79932,0.29443l3.99658,2.54102l-1.8457,2.90283L6.63086,31.15234z"/>
<path fill="#fff" d="M22.94336,25.45508c-0.76318,0.29248-1.51709,0.36084-2.26123,0.20459s-1.42334-0.55225-2.03906-1.18896
	l-4.36914-4.52197l2.47363-2.39063l4.09131,4.23438c0.771,0.79785,1.53223,0.8335,2.28418,0.10693
	c0.75146-0.72656,0.74219-1.48828-0.02881-2.28613l-4.0918-4.23438l2.47412-2.39014l4.36914,4.52148
	c0.61572,0.63672,0.98828,1.32959,1.11865,2.07861c0.13086,0.74951,0.03662,1.5-0.28174,2.25244
	c-0.31836,0.75293-0.83057,1.47021-1.53613,2.15234C24.44043,24.67529,23.70654,25.1626,22.94336,25.45508z"/>
<path fill="#fff" d="M37.58008,8.54395l6.11328-2.10059L44.5459,8.9248l-6.11328,2.10059L37.58008,8.54395z"/>
</svg>
