<?xml version="1.0" encoding="utf-8"?>
<!-- Generator: Adobe Illustrator 15.0.0, SVG Export Plug-In  -->
<!DOCTYPE svg PUBLIC "-//W3C//DTD SVG 1.1//EN" "http://www.w3.org/Graphics/SVG/1.1/DTD/svg11.dtd" [
	<!ENTITY ns_flows "http://ns.adobe.com/Flows/1.0/">
]>
<svg version="1.1"
	 xmlns="http://www.w3.org/2000/svg" xmlns:xlink="http://www.w3.org/1999/xlink" xmlns:a="http://ns.adobe.com/AdobeSVGViewerExtensions/3.0/"
	 x="0px" y="0px" width="120px" height="120px" viewBox="0 0 120 120" enable-background="new 0 0 120 120" xml:space="preserve">
<defs>
</defs>
<line display="none" fill="none" stroke="#B3DFF2" stroke-miterlimit="10" x1="0.35352" y1="125.53125" x2="125.53125" y2="0.35352"/>
<line display="none" fill="none" stroke="#B3DFF2" stroke-miterlimit="10" x1="0.35352" y1="5.53174" x2="124.63867" y2="129.81641"/>
<path display="none" fill="#fff" d="M61.79883,0.22168l2.78516,0.32471l1.85352,5.26025l3.00195-4.69434l2.76953,0.32422
	l-1.14453,9.79883l-2.85938-0.33398l0.57031-4.8999l-1.94336,3.04297l-1.53711-0.17871l-1.20508-3.41113l-0.57031,4.8999
	l-2.86133-0.33398L61.79883,0.22168z"/>
<path display="none" fill="#fff" d="M74.97266,2.22266l7.10352,2.33594l-0.6875,2.09473l-4.36914-1.43604l-0.50195,1.52832
	l3.82813,1.25879l-0.69922,2.125l-3.82813-1.25879l-0.50195,1.52783l4.36523,1.43604l-0.6875,2.09619l-7.10352-2.33643
	L74.97266,2.22266z"/>
<path display="none" fill="#fff" d="M84.19922,5.43164l2.14648,1.18604l0.72852,6.37402l2.5293-4.57227l2.51953,1.39404
	l-4.77344,8.63428l-2.1582-1.19434l-0.72461-6.35303l-2.52148,4.55811l-2.52148-1.39404L84.19922,5.43164z"/>
<path display="none" fill="#fff" d="M89.53906,19.05029c-0.19336-1.07861,0.11914-2.09375,0.93945-3.04492l3.96484-4.59082
	l2.17969,1.88281l-3.76367,4.35938c-0.78906,0.91162-0.73047,1.75879,0.17383,2.54004
	c0.89648,0.77393,1.74023,0.70557,2.52734-0.20703l3.76563-4.35938l2.17969,1.88232l-3.9668,4.59082
	c-0.54688,0.63379-1.16016,1.04785-1.8418,1.24316c-0.68164,0.19385-1.38867,0.17676-2.12109-0.05127
	c-0.73438-0.229-1.44922-0.64404-2.14453-1.24414C90.36523,21.13037,89.73438,20.12939,89.53906,19.05029z"/>
<path display="none" fill="#fff" d="M108.73828,35.7373l2.27734,5.77197l-2.05469,0.80908l-2.27344-5.77197L108.73828,35.7373z"
	/>
<path display="none" fill="#fff" d="M118.20117,59.91064l-0.33398,2.78271l-5.26563,1.83789l4.68359,3.01563l-0.33203,2.76953
	l-9.79688-1.17578L107.5,66.2832l4.89844,0.58594l-3.03711-1.95313l0.18359-1.53516l3.41406-1.19336l-4.89648-0.58789
	l0.34375-2.86084L118.20117,59.91064z"/>
<path display="none" fill="#fff" d="M116.16016,73.07227l-2.35742,7.09375l-2.09375-0.69336l1.44922-4.36133l-1.52734-0.50781
	l-1.26953,3.82227l-2.12305-0.70508l1.26953-3.82227l-1.52539-0.50781L106.5332,77.75l-2.09375-0.69336l2.35742-7.0957
	L116.16016,73.07227z"/>
<path display="none" fill="#fff" d="M112.92383,82.28711l-1.19141,2.14258l-6.375,0.71094l4.5625,2.54102l-1.40039,2.51758
	l-8.61914-4.80273l1.19922-2.1543l6.35352-0.70508l-4.55273-2.53516l1.40234-2.51563L112.92383,82.28711z"/>
<path display="none" fill="#fff" d="M99.27734,87.60156c1.08008-0.19141,2.09375,0.125,3.04102,0.94727l4.57813,3.98047
	l-1.89063,2.17383l-4.34766-3.7793c-0.9082-0.79102-1.75781-0.73438-2.53906,0.16602
	c-0.77734,0.89648-0.71289,1.73633,0.19727,2.52734l4.34766,3.7793l-1.89063,2.17383l-4.57813-3.98047
	c-0.63281-0.54883-1.04492-1.16406-1.23633-1.8457s-0.17383-1.38867,0.06055-2.12109c0.22852-0.73242,0.64648-1.44727,1.25-2.14063
	C97.19531,88.41797,98.19727,87.79102,99.27734,87.60156z"/>
<path display="none" fill="#fff" d="M82.54297,106.73828l-5.7793,2.25781l-0.80273-2.05469l5.7793-2.25977L82.54297,106.73828z"
	/>
<path display="none" fill="#fff" d="M58.3335,116.125l-2.7832-0.34375l-1.8208-5.27148l-3.02979,4.67578l-2.76709-0.3418
	l1.20605-9.79102l2.85791,0.35352l-0.60303,4.89453l1.96289-3.0293l1.53613,0.1875l1.18506,3.41797l0.60303-4.89453l2.85889,0.35352
	L58.3335,116.125z"/>
<path display="none" fill="#fff" d="M45.18359,114.04297l-7.08691-2.37891l0.70166-2.0918l4.35693,1.46289l0.51221-1.52539
	l-3.81982-1.28125l0.71191-2.12109l3.81982,1.2832l0.51221-1.52344l-4.35693-1.46484l0.70166-2.0918l7.0874,2.38086
	L45.18359,114.04297z"/>
<path display="none" fill="#fff" d="M35.96045,110.77148l-2.13672-1.20117l-0.68799-6.37695l-2.55811,4.55469l-2.51123-1.41016
	l4.83105-8.60156l2.1499,1.20703l0.68311,6.35547l2.5498-4.54297l2.51123,1.41016L35.96045,110.77148z"/>
<path display="none" fill="#fff" d="M30.69629,97.10742c0.18799,1.08008-0.13184,2.0918-0.95996,3.03711l-3.99561,4.5625
	l-2.16699-1.89453l3.79395-4.33398c0.79395-0.90625,0.74072-1.75391-0.1582-2.54102
	c-0.89209-0.78125-1.73389-0.71875-2.52783,0.1875l-3.79395,4.33398l-2.16699-1.89453L22.71631,94
	c0.55127-0.63086,1.16797-1.04102,1.85107-1.23047c0.68311-0.1875,1.38916-0.16797,2.12207,0.06445
	c0.73193,0.23438,1.44385,0.6543,2.13525,1.25977C29.88428,95.02148,30.5083,96.02539,30.69629,97.10742z"/>
<path display="none" fill="#fff" d="M11.62354,80.32422l-2.24121-5.78711l2.05811-0.79688l2.24023,5.78711L11.62354,80.32422z"/>
<path display="none" fill="#fff" d="M2.30957,56.08057l0.35205-2.78125l5.27686-1.80371l-4.66504-3.04395l0.3501-2.76611
	l9.78809,1.23584l-0.36133,2.85693l-4.89502-0.61865l3.02441,1.97168l-0.19434,1.53516l-3.42188,1.17383l4.89404,0.61816
	l-0.36084,2.85693L2.30957,56.08057z"/>
<path display="none" fill="#fff" d="M4.4375,42.91943l2.40479-7.0791l2.08936,0.70898l-1.479,4.35205l1.52295,0.51807
	l1.2959-3.81494l2.11816,0.71924l-1.2959,3.81494l1.52295,0.51807l1.479-4.35205l2.08887,0.70996l-2.40527,7.07861L4.4375,42.91943z
	"/>
<path display="none" fill="#fff" d="M7.73975,33.70947l1.20801-2.13281l6.37988-0.66699l-4.5459-2.57422l1.41895-2.50586
	l8.58594,4.85986l-1.21533,2.146l-6.35889,0.66113l4.5332,2.56592l-1.41895,2.50586L7.73975,33.70947z"/>
<path display="none" fill="#fff" d="M21.40967,28.5083c-1.08105,0.18408-2.09326-0.13867-3.03613-0.96875l-4.55322-4.00879
	l1.90332-2.16211l4.32275,3.80664c0.9043,0.79736,1.75098,0.74707,2.54102-0.1499c0.7832-0.88867,0.72314-1.73193-0.18213-2.52783
	l-4.32275-3.80713l1.90381-2.16211l4.55322,4.01025c0.62793,0.55371,1.03711,1.17188,1.2251,1.854
	c0.18799,0.68311,0.16406,1.39014-0.07227,2.12109c-0.23584,0.73096-0.65674,1.44189-1.26465,2.13184
	C23.49756,27.70361,22.49072,28.32471,21.40967,28.5083z"/>
<path display="none" fill="#fff" d="M38.29053,9.46729l5.79395-2.21777l0.78906,2.06104l-5.79492,2.21777L38.29053,9.46729z"/>
<path fill="#fff" d="M62.42773,9.30518C61.5,8.31543,61.11426,6.96582,61.27051,5.25537
	c0.15918-1.74219,0.77637-3.01904,1.85156-3.83154c1.0752-0.81201,2.58594-1.12988,4.5293-0.95264
	c0.62695,0.05713,1.18555,0.15381,1.67676,0.28955s0.97754,0.32227,1.45898,0.55859l-0.27148,2.97998
	c-0.91699-0.51221-1.88086-0.81445-2.88965-0.90625c-0.88184-0.08057-1.56055,0.05029-2.03613,0.39258
	s-0.75195,0.93848-0.83008,1.78809c-0.0752,0.82861,0.0957,1.44922,0.51367,1.8623c0.41699,0.41309,1.06641,0.65967,1.94824,0.74023
	c1.03027,0.09375,2.03223-0.02393,3.00488-0.35303l-0.27344,2.99561c-0.50488,0.13623-1.0166,0.22363-1.53418,0.26172
	c-0.51758,0.03857-1.08496,0.02979-1.7002-0.02637C64.78516,10.87793,63.35449,10.29492,62.42773,9.30518z"/>
<path fill="#fff" d="M73.67676,1.55029l3.30273,0.96045l-2.14355,7.37451l4.24023,1.23291l-0.73242,2.52002l-7.54395-2.19336
	L73.67676,1.55029z"/>
<path fill="#fff" d="M79.36523,12.89111c-0.42871-1.15723-0.22266-2.56299,0.61816-4.21729
	C80.83496,7,81.85352,5.99561,83.04199,5.66016c1.1875-0.33545,2.5752-0.09961,4.16309,0.70752s2.5957,1.78955,3.02441,2.94678
	s0.21777,2.57275-0.63281,4.24609c-0.84082,1.65479-1.85547,2.64941-3.04297,2.98535
	c-1.1875,0.33545-2.5752,0.09961-4.16309-0.70801C80.80273,15.03076,79.79395,14.04883,79.36523,12.89111z M85.24023,13.39209
	c0.43066-0.19971,0.83691-0.67529,1.21875-1.42676c0.39648-0.7793,0.54883-1.396,0.45605-1.8501
	c-0.09277-0.45361-0.4375-0.83301-1.03711-1.1377c-0.59863-0.3042-1.11133-0.36133-1.53711-0.1709s-0.83691,0.67529-1.2334,1.45508
	c-0.38672,0.76074-0.5332,1.37109-0.43848,1.83252c0.09473,0.46094,0.44238,0.84375,1.04102,1.14795
	C84.2998,13.54199,84.80957,13.5918,85.24023,13.39209z"/>
<path fill="#fff" d="M88.47461,19.24316c-0.43359-0.4917-0.76074-0.95947-0.98047-1.40479l1.66406-2.11084
	c0.24805,0.49463,0.56543,0.98877,0.9502,1.48242s0.77051,0.89209,1.15527,1.19629c0.35254,0.27734,0.6416,0.44775,0.87012,0.51221
	c0.22754,0.06396,0.41113,0.0083,0.5498-0.16797c0.125-0.15869,0.14258-0.34521,0.05273-0.55859s-0.2959-0.56299-0.61914-1.04883
	c-0.09961-0.13232-0.21875-0.30811-0.3584-0.52734c-0.40039-0.61328-0.66602-1.146-0.79883-1.59717
	c-0.13379-0.45117-0.14844-0.88086-0.04492-1.2876c0.10449-0.40771,0.33398-0.8374,0.69043-1.28955
	c1.30762-1.65869,3.11328-1.58008,5.41699,0.23584c0.41016,0.32324,0.83301,0.71777,1.26758,1.18262
	c0.43555,0.46533,0.78027,0.87988,1.03613,1.24463l-1.67383,2.12354c-0.53418-0.92383-1.12891-1.64355-1.78223-2.15869
	c-0.36035-0.28369-0.66602-0.47705-0.91699-0.58057c-0.25195-0.10303-0.44336-0.0708-0.5752,0.09668
	c-0.08594,0.10889-0.11133,0.23145-0.07617,0.36768c0.03516,0.13672,0.11426,0.29443,0.23828,0.47314
	c0.12305,0.1792,0.34766,0.48486,0.67188,0.91748c0.50684,0.68408,0.83203,1.28711,0.97754,1.80957
	c0.14551,0.52197,0.15234,0.99609,0.02051,1.42139c-0.13184,0.42578-0.38281,0.87354-0.75195,1.34229
	c-0.6084,0.771-1.3877,1.14453-2.33984,1.12012c-0.95215-0.02393-2.00195-0.48828-3.15039-1.39258
	C89.40723,20.20166,88.90918,19.73486,88.47461,19.24316z"/>
<path fill="#fff" d="M101.97363,17.15283l5.27637,6.03516l-1.91602,1.67432l-3.01172-3.44531l-0.9873,0.86328l2.62207,2.99951
	l-1.96387,1.7168l-2.62207-3l-0.97559,0.85303l3.01172,3.44531l-1.91602,1.67432l-5.27539-6.03516L101.97363,17.15283z"/>
<path fill="#fff" d="M110.50684,37.74365l2.08105,6.11963l-2.48438,0.84473l-2.08105-6.11963L110.50684,37.74365z"/>
<path fill="#fff" d="M109.71387,58.38232c0.96875-0.94824,2.31055-1.3623,4.02344-1.24316
	c1.74512,0.12207,3.03516,0.71143,3.87109,1.76953c0.83398,1.05811,1.18457,2.56104,1.04883,4.5083
	c-0.04395,0.62793-0.12891,1.18848-0.25391,1.68262c-0.12598,0.49316-0.30176,0.9834-0.52734,1.4707l-2.98535-0.20801
	c0.49219-0.92871,0.77441-1.89746,0.84473-2.90918c0.06152-0.88281-0.08398-1.55859-0.43652-2.02637
	c-0.35156-0.46875-0.9541-0.73242-1.80469-0.79199c-0.83008-0.05762-1.44727,0.12598-1.85156,0.55273
	c-0.40332,0.42578-0.63672,1.08105-0.69824,1.96387c-0.07129,1.03223,0.06738,2.03125,0.41699,2.99609l-3.00098-0.20898
	c-0.14648-0.50195-0.24512-1.01172-0.29395-1.52832c-0.0498-0.5166-0.05273-1.08398-0.00977-1.7002
	C108.19141,60.77246,108.74316,59.33057,109.71387,58.38232z"/>
<path fill="#fff" d="M117.70898,69.4541l-0.8877,3.32324l-7.41992-1.9834l-1.14063,4.2666l-2.53516-0.67773l2.0293-7.58984
	L117.70898,69.4541z"/>
<path fill="#fff" d="M106.48828,75.40527c1.14844-0.45313,2.55859-0.27734,4.23047,0.52832
	c1.69043,0.81543,2.7168,1.8125,3.07715,2.99316c0.36133,1.17969,0.15527,2.57227-0.61816,4.17773
	c-0.77344,1.60449-1.73438,2.63379-2.88184,3.08691c-1.14844,0.45313-2.56738,0.27246-4.25879-0.54297
	c-1.67188-0.80566-2.68848-1.79883-3.04883-2.97852c-0.36133-1.18066-0.15527-2.57324,0.61816-4.17773
	S105.34082,75.8584,106.48828,75.40527z M106.11328,81.28906c0.20898,0.42676,0.69238,0.82324,1.45215,1.18848
	c0.78711,0.37988,1.40723,0.51855,1.85938,0.41699c0.45117-0.10254,0.82324-0.45605,1.11523-1.06152
	c0.29102-0.60547,0.33789-1.11914,0.13867-1.54004c-0.2002-0.42188-0.69336-0.82324-1.48145-1.20215
	c-0.76855-0.37109-1.38281-0.50391-1.8418-0.39941c-0.45801,0.10449-0.83398,0.45996-1.125,1.06543
	C105.94336,80.35254,105.9043,80.86328,106.11328,81.28906z"/>
<path fill="#fff" d="M100.3457,84.625c0.48242-0.44434,0.94336-0.78125,1.38281-1.01074l2.14648,1.61816
	c-0.48828,0.25879-0.97559,0.58594-1.46094,0.98145s-0.87598,0.79004-1.1709,1.18164
	c-0.26953,0.35742-0.43457,0.65137-0.49316,0.87988c-0.05957,0.22949,0,0.41113,0.17969,0.54688
	c0.16113,0.12109,0.34863,0.13477,0.55957,0.04102c0.21191-0.09473,0.55664-0.30859,1.03516-0.64258
	c0.12988-0.10254,0.30371-0.22559,0.51953-0.37012c0.60449-0.41211,1.13086-0.68945,1.5791-0.83301
	c0.44824-0.14258,0.87793-0.16699,1.28711-0.07227s0.84375,0.31641,1.30371,0.66309
	c1.68652,1.27051,1.64746,3.07715-0.11816,5.41992c-0.31445,0.41699-0.7002,0.84863-1.15527,1.29297
	c-0.45508,0.44531-0.86328,0.7998-1.22168,1.06348l-2.15918-1.62793c0.91211-0.55469,1.61816-1.16406,2.11914-1.82813
	c0.27637-0.36719,0.46289-0.67676,0.56055-0.93066c0.09766-0.25293,0.06152-0.44434-0.10938-0.57227
	c-0.11035-0.08398-0.2334-0.10645-0.36914-0.06836s-0.29102,0.12109-0.46777,0.24805
	c-0.17578,0.12793-0.47754,0.3584-0.90234,0.69238c-0.67285,0.52148-1.26953,0.86035-1.78809,1.0166
	s-0.99219,0.17383-1.4209,0.05078c-0.42871-0.12207-0.88086-0.36328-1.3584-0.72266c-0.7832-0.59082-1.17383-1.3623-1.16992-2.31543
	c0.00293-0.95215,0.44434-2.01172,1.32422-3.17871C99.40723,85.57715,99.86328,85.07031,100.3457,84.625z"/>
<path fill="#fff" d="M102.72754,98.07715l-5.91992,5.40527l-1.71484-1.87891l3.37891-3.08594l-0.88477-0.96875l-2.94141,2.68652
	l-1.75879-1.92578l2.94238-2.68652l-0.87402-0.95703l-3.37988,3.08496l-1.71484-1.87891l5.91992-5.4043L102.72754,98.07715z"/>
<path fill="#fff" d="M82.31348,107.06152l-6.07324,2.21289l-0.89844-2.46582l6.07324-2.21289L82.31348,107.06152z"/>
<path fill="#fff" d="M61.66699,106.70996c0.96875,0.94922,1.41211,2.28125,1.3291,3.99707
	c-0.08496,1.74707-0.64648,3.0498-1.68652,3.90723c-1.04053,0.85742-2.53516,1.23926-4.48486,1.14453
	c-0.62842-0.03027-1.19092-0.10254-1.6875-0.21777c-0.49609-0.11426-0.99023-0.28027-1.48193-0.49609l0.14453-2.98828
	c0.93848,0.47266,1.91357,0.7334,2.92578,0.78223c0.88428,0.04297,1.55664-0.11719,2.01758-0.47949
	c0.46045-0.3623,0.71143-0.96973,0.75244-1.82129c0.04053-0.83105-0.15674-1.44434-0.5918-1.83887
	c-0.43457-0.39551-1.09424-0.61328-1.97852-0.65625c-1.0332-0.0498-2.02881,0.11035-2.98682,0.48047l0.14551-3.00488
	c0.49854-0.15723,1.00586-0.2666,1.52148-0.32715s1.08252-0.0752,1.7002-0.0459
	C59.24463,105.23926,60.69824,105.76074,61.66699,106.70996z"/>
<path fill="#fff" d="M50.7793,114.94238l-3.34229-0.81543l1.8208-7.46094l-4.29004-1.04688l0.62207-2.5498l7.63232,1.86328
	L50.7793,114.94238z"/>
<path fill="#fff" d="M44.59961,103.86035c0.47852,1.1377,0.3335,2.55176-0.43506,4.24023
	c-0.77734,1.70898-1.75195,2.75684-2.92432,3.14355c-1.17188,0.38672-2.56836,0.21191-4.18994-0.52637
	c-1.62158-0.7373-2.67139-1.6748-3.1499-2.8125s-0.3291-2.56055,0.44824-4.26953c0.76855-1.68945,1.73877-2.72754,2.91064-3.11426
	c1.17236-0.38672,2.56885-0.21094,4.19043,0.52637S44.12109,102.72266,44.59961,103.86035z M38.7085,103.61523
	c-0.42188,0.21777-0.80713,0.71094-1.15576,1.47754c-0.3623,0.7959-0.4873,1.41895-0.37549,1.86914
	c0.11182,0.44922,0.47363,0.8125,1.08545,1.09082s1.12646,0.31348,1.54346,0.10449s0.80664-0.71094,1.16895-1.50684
	c0.35352-0.77734,0.47266-1.39355,0.35791-1.84961c-0.11426-0.45703-0.47754-0.82422-1.08936-1.10254
	C39.6416,103.4248,39.13037,103.39648,38.7085,103.61523z"/>
<path fill="#fff" d="M35.23779,97.91602c0.45557,0.47266,0.80225,0.92578,1.04102,1.36133l-1.5708,2.18066
	c-0.26953-0.4834-0.60742-0.96289-1.01367-1.43945c-0.40576-0.47656-0.80811-0.8584-1.20654-1.14453
	c-0.36328-0.26172-0.66016-0.41992-0.89063-0.47461c-0.23047-0.05371-0.41113,0.00977-0.54199,0.19141
	c-0.11865,0.16406-0.12793,0.35156-0.0293,0.56055c0.09912,0.20996,0.3208,0.5498,0.66455,1.02148
	c0.10498,0.12793,0.23242,0.29785,0.38135,0.51074c0.42578,0.5957,0.71436,1.11621,0.86719,1.56152s0.18604,0.87305,0.1001,1.28418
	c-0.08594,0.41211-0.29736,0.85059-0.63379,1.31836c-1.23438,1.71387-3.0415,1.71387-5.42188-0.00098
	c-0.42383-0.30469-0.86328-0.68066-1.31787-1.12598c-0.45459-0.44629-0.81787-0.8457-1.08936-1.19922l1.58057-2.19336
	c0.57422,0.89941,1.19873,1.59277,1.87402,2.0791c0.37207,0.26758,0.68652,0.44824,0.94189,0.54004
	c0.25586,0.0918,0.4458,0.05176,0.57031-0.12109c0.08105-0.11328,0.10107-0.23633,0.06006-0.37109
	c-0.04053-0.13477-0.12695-0.28906-0.2583-0.46191c-0.13135-0.17383-0.36865-0.46973-0.71191-0.8877
	c-0.53564-0.66113-0.88721-1.25-1.05518-1.76563c-0.16748-0.51465-0.19531-0.98828-0.08203-1.41895
	c0.11328-0.43164,0.34473-0.88965,0.69385-1.37402c0.57373-0.79688,1.33643-1.20313,2.28857-1.2207
	c0.95264-0.01758,2.02148,0.40137,3.20752,1.25488C34.26563,96.99902,34.78271,97.44434,35.23779,97.91602z"/>
<path fill="#fff" d="M21.82227,100.57422l-5.5293-5.80469l1.8418-1.75391l3.15674,3.3125l0.94971-0.90527l-2.74805-2.88379
	l1.88818-1.79883l2.74805,2.88379l0.93848-0.89355l-3.15625-3.31348l1.8418-1.75488l5.5293,5.80469L21.82227,100.57422z"/>
<path fill="#fff" d="M12.41602,80.37598l-2.3457-6.02344l2.44531-0.95215l2.3457,6.02344L12.41602,80.37598z"/>
<path fill="#fff" d="M12.31592,59.72119c-0.92822,0.98877-2.25049,1.46045-3.96729,1.41357
	c-1.74854-0.04688-3.06299-0.58105-3.94238-1.60254c-0.87939-1.021-1.29297-2.50732-1.24072-4.45898
	c0.01709-0.62891,0.07764-1.19287,0.18164-1.69141c0.10449-0.49902,0.25928-0.99609,0.46436-1.49219l2.99121,0.08057
	c-0.45215,0.94824-0.69238,1.92871-0.71973,2.94141c-0.02393,0.88525,0.15039,1.5542,0.52246,2.00684
	c0.37158,0.45313,0.98438,0.69092,1.8374,0.71387c0.83154,0.02246,1.44043-0.18799,1.82568-0.63086
	c0.38525-0.44336,0.58984-1.10742,0.61377-1.99219c0.02783-1.03418-0.15381-2.02637-0.54395-2.97607l3.00684,0.08105
	c0.16797,0.49561,0.2876,1,0.35938,1.51416c0.07129,0.51416,0.09863,1.08057,0.08203,1.69873
	C13.73438,57.26807,13.24463,58.73291,12.31592,59.72119z"/>
<path fill="#fff" d="M3.84912,49.02002l0.74268-3.35889l7.49902,1.65674l0.95264-4.31152l2.5625,0.56592l-1.69531,7.6709
	L3.84912,49.02002z"/>
<path fill="#fff" d="M14.80078,42.5791c-1.12695,0.50293-2.54346,0.38818-4.24902-0.34424
	c-1.7251-0.74023-2.79346-1.69238-3.20508-2.85596c-0.41211-1.16309-0.2666-2.56348,0.43604-4.2002
	c0.70264-1.63721,1.61768-2.70703,2.74512-3.20996c1.12695-0.50244,2.55322-0.38379,4.27783,0.35693
	c1.70557,0.73193,2.76416,1.68018,3.17627,2.84326c0.41162,1.16357,0.26611,2.56396-0.43652,4.20068
	S15.92773,42.07666,14.80078,42.5791z M14.91992,36.68408c-0.22754-0.41699-0.72803-0.7915-1.50244-1.12402
	c-0.80371-0.34473-1.4292-0.45654-1.87598-0.33496s-0.80273,0.49121-1.06787,1.1084
	c-0.26514,0.61768-0.28906,1.13281-0.07129,1.54541c0.21729,0.4126,0.72803,0.7915,1.53174,1.13623
	c0.78418,0.33691,1.40283,0.44287,1.85693,0.31836c0.4541-0.12402,0.81348-0.49512,1.07861-1.11279
	C15.13037,37.61328,15.14746,37.10107,14.91992,36.68408z"/>
<path fill="#fff" d="M20.54785,33.0835c-0.46289,0.46484-0.90869,0.82129-1.33887,1.06934l-2.21338-1.5249
	c0.47754-0.27979,0.9502-0.62744,1.41797-1.04395c0.46826-0.41553,0.84131-0.82568,1.11963-1.22998
	c0.25391-0.36865,0.40576-0.66895,0.45508-0.90039s-0.01807-0.41113-0.20264-0.53809
	c-0.16699-0.11475-0.354-0.12061-0.56104-0.01758c-0.20752,0.10352-0.54297,0.33252-1.00684,0.68604
	c-0.12598,0.10791-0.29346,0.23828-0.50293,0.39209c-0.58643,0.43799-1.10107,0.73779-1.54248,0.89941
	c-0.44189,0.16211-0.86963,0.20459-1.28271,0.12695c-0.41309-0.07715-0.85645-0.2793-1.33105-0.60596
	c-1.73926-1.19775-1.77686-3.00488-0.11279-5.42041c0.29639-0.43018,0.6626-0.87744,1.09863-1.34131
	s0.82764-0.83545,1.17529-1.11426l2.22705,1.53418c-0.8877,0.59277-1.56787,1.23193-2.03955,1.91699
	c-0.26025,0.37793-0.43359,0.6958-0.52051,0.95313c-0.08691,0.25781-0.04248,0.44678,0.1333,0.56787
	c0.11426,0.07861,0.23828,0.09619,0.37207,0.05225c0.13379-0.04346,0.28613-0.1333,0.45654-0.26807
	c0.1709-0.13525,0.46143-0.37842,0.87207-0.73047c0.65039-0.54883,1.23145-0.91309,1.74316-1.0918s0.98389-0.21582,1.41748-0.11182
	c0.43311,0.10449,0.896,0.32617,1.3877,0.66504c0.80859,0.55664,1.23096,1.31104,1.26855,2.2627
	c0.03711,0.95166-0.3584,2.0293-1.1875,3.23291C21.44482,32.0918,21.01074,32.61865,20.54785,33.0835z"/>
<path fill="#fff" d="M17.59961,19.74023l5.68506-5.65137l1.79395,1.8042l-3.24561,3.22607l0.9248,0.93066l2.82568-2.80908
	l1.83838,1.8501l-2.8252,2.80859l0.91357,0.91895l3.24561-3.22607l1.79346,1.8042l-5.68506,5.65137L17.59961,19.74023z"/>
<path fill="#fff" d="M37.57275,9.91455l5.9707-2.47705l1.00537,2.42383l-5.97021,2.47656L37.57275,9.91455z"/>
</svg>
